PathFileType	4	(X/Y/Z)	C:\Data\4407\4407cd02.trc
DataRate	CameraRate	NumFrames	NumMarkers	Units	OrigDataRate	OrigDataStartFrame	OrigNumFrames
200.00	200.00	      11	29	mm	200.00	1751	      2000
Frame#	Time	Offset			RShoulder			RUpperArm			RElbow			RForearm			RWrist			LShoulder			LUpperArm			LElbow			LForearm			LWrist			LPSIS			RPSIS			RASIS			RThigh			RKnee			RShank			RAnkle			RHeel			RLat5			RToe			LASIS			LThigh			LKnee			LShank			LAnkle			LHeel			LLat5			LToe			
		X1	Y1	Z1	X2	Y2	Z2	X3	Y3	Z3	X4	Y4	Z4	X5	Y5	Z5	X6	Y6	Z6	X7	Y7	Z7	X8	Y8	Z8	X9	Y9	Z9	X10	Y10	Z10	X11	Y11	Z11	X12	Y12	Z12	X13	Y13	Z13	X14	Y14	Z14	X15	Y15	Z15	X16	Y16	Z16	X17	Y17	Z17	X18	Y18	Z18	X19	Y19	Z19	X20	Y20	Z20	X21	Y21	Z21	X22	Y22	Z22	X23	Y23	Z23	X24	Y24	Z24	X25	Y25	Z25	X26	Y26	Z26	X27	Y27	Z27	X28	Y28	Z28	X29	Y29	Z29	

1751	8.750	370.64380	-220.65388	1394.48425	474.67020	-81.47718	1506.04724	539.71039	-180.91339	1333.06458	632.84723	-159.42296	1207.63208	670.58911	-123.55820	1049.37183	747.68701	-12.36176	1015.79047	123.74678	-112.66939	1497.50244	70.78671	-201.52060	1290.71863	-18.06884	-174.97441	1204.26184	-79.03870	-139.39120	1061.69238	-173.56541	-28.79443	1007.60028	290.12921	-236.95195	1012.73871	339.88177	-233.91772	1016.76581	418.57150	-14.14132	1022.92084	359.49780	35.26136	714.31281	420.46786	-6.34004	516.54480	372.80734	16.41193	442.09625	374.06226	-66.59924	106.88705	329.19427	-126.78094	74.27035	409.72992	75.78535	62.50809	302.15707	83.18244	56.76176	170.55472	-33.91839	993.84039	183.49226	38.55402	669.17804	120.55804	-23.29416	502.24484	164.48259	-46.19571	419.45303	173.38036	-363.84683	262.36224	232.06596	-410.32516	296.06589	143.09157	-336.13348	106.36172	252.30081	-326.10794	99.24922	
1752	8.755	371.04874	-221.24641	1395.39880	474.75330	-81.64225	1506.59668	540.28052	-181.02841	1333.90234	632.96716	-158.97293	1208.08557	670.67975	-123.56382	1049.85803	747.70856	-12.36368	1015.84998	123.58398	-113.09733	1497.93665	70.27339	-201.59554	1291.22229	-18.39348	-174.62018	1204.77295	-79.16142	-139.35133	1062.07043	-173.63174	-28.85215	1007.64581	290.31946	-237.47008	1013.45343	339.72256	-234.65131	1017.73413	419.07813	-14.84641	1023.48291	359.92599	32.16631	713.80408	420.75095	-10.91349	516.43359	373.63498	12.00228	441.84946	374.08829	-73.17822	107.15131	329.31039	-133.57759	74.23515	409.88144	69.34135	62.45370	302.09616	76.29040	56.66384	171.09381	-34.61932	994.96844	183.75972	41.08113	671.05334	121.13728	-17.74655	504.15430	164.82707	-39.72807	420.99814	173.39754	-355.71677	260.46573	231.67702	-403.41187	292.57910	142.33441	-324.31842	104.98666	251.57033	-314.44586	97.77758	
1753	8.760	371.32523	-221.75211	1396.23987	474.81982	-81.81004	1507.09290	540.83313	-181.10558	1334.47595	633.12378	-158.63103	1208.50024	670.80548	-123.43075	1050.19043	747.65833	-12.34079	1015.89783	123.44239	-113.51112	1498.30835	69.66898	-201.97592	1291.68323	-18.66273	-174.33827	1205.11462	-79.32928	-139.33473	1062.52991	-173.67410	-28.86838	1007.65845	290.41379	-238.14862	1014.07379	339.96738	-235.43044	1018.50031	419.51080	-15.74062	1023.98822	360.41183	29.37907	713.44464	421.14536	-15.70164	516.17603	374.08450	7.03724	441.73987	374.09418	-79.73730	107.35738	329.13107	-140.09349	74.45405	409.95383	62.70801	62.29342	302.17621	69.96868	56.53494	171.61818	-35.21980	995.97144	183.91685	44.35809	673.89960	121.69487	-12.59766	506.04675	165.53441	-33.10045	422.65771	173.52223	-347.50134	257.99564	231.69293	-396.15131	288.76071	141.71657	-312.02475	103.76069	251.12349	-303.17139	95.79115	
1754	8.765	371.50458	-222.27222	1397.06372	474.88071	-82.05460	1507.71057	541.55725	-181.12070	1335.08118	633.34406	-158.27980	1208.97839	670.92590	-123.38475	1050.53735	747.74323	-12.20957	1016.02057	123.41261	-113.94217	1498.63965	69.06145	-202.01184	1292.15601	-18.86971	-174.06525	1205.48291	-79.48405	-139.29897	1062.76685	-173.69861	-28.87799	1007.66925	290.50943	-238.80782	1014.52100	340.00882	-236.01927	1019.15698	420.16467	-16.64257	1024.25696	361.09564	26.75019	712.93085	421.54880	-20.03045	516.04211	374.65143	2.32240	441.56168	374.13251	-86.10793	107.20476	329.08624	-146.79628	74.82720	409.90576	56.30600	62.08850	302.10843	63.54168	56.35371	172.15076	-35.69577	996.84851	184.09441	47.01154	675.92377	122.18668	-7.54527	507.96127	165.95959	-26.72803	424.41083	173.33418	-339.15329	255.52806	231.38208	-388.84531	284.59637	141.12389	-299.41174	102.25324	251.43253	-292.42172	93.58186	
1755	8.770	371.70895	-222.92656	1397.85510	475.04651	-82.34677	1508.10718	542.09180	-181.14980	1335.78259	633.58850	-157.73534	1209.42139	671.09906	-123.36263	1051.04211	747.71100	-12.10742	1016.11194	123.32529	-114.42886	1499.01892	68.67955	-202.12625	1292.49731	-19.16847	-173.65485	1205.91833	-79.67709	-139.17690	1063.17908	-173.78192	-28.89183	1007.69275	290.48459	-239.20874	1015.05280	340.07990	-236.83452	1019.72662	420.64856	-17.62726	1024.56665	361.81277	24.12841	712.70819	422.06799	-24.97082	515.97095	374.86771	-2.89126	441.22507	373.98111	-92.69328	107.47395	328.93762	-153.33017	75.01971	409.90720	49.74580	61.93160	302.15262	57.00730	56.16270	172.52493	-36.31593	997.66449	184.26056	49.98487	678.56769	122.87374	-2.52530	509.91541	166.54626	-20.56434	426.00534	173.23358	-330.36502	252.99789	231.39041	-381.18341	280.02383	140.34801	-286.56018	100.82954	249.45876	-277.53082	92.02882	
1756	8.775	371.94174	-223.38139	1398.46655	474.94818	-82.80901	1508.57117	542.75262	-181.23132	1336.22583	633.77704	-157.35115	1209.84998	671.20654	-123.29694	1051.34167	747.77094	-11.98189	1016.24335	123.25750	-114.91664	1499.34436	68.38953	-202.30219	1292.92822	-19.36770	-173.43445	1206.26147	-79.76272	-138.97318	1063.43665	-173.80408	-28.71813	1007.77228	290.62668	-239.90160	1015.49213	340.07654	-237.48627	1020.42120	421.32990	-18.73615	1025.54443	362.43002	21.70453	712.00433	422.14789	-29.83976	515.65051	375.02777	-8.35876	440.94638	373.91656	-99.05112	107.54230	328.80441	-159.83119	75.26326	409.87485	43.07492	61.79478	302.13690	50.15934	55.94930	173.09372	-36.88536	998.51343	184.22592	52.67893	680.72485	123.40958	2.29225	511.77661	167.19182	-14.13678	427.84982	173.18243	-321.57938	249.72385	231.25064	-373.74292	275.39798	139.41310	-273.75415	99.21215	248.47728	-265.08936	90.18617	
1757	8.780	372.04974	-223.99303	1399.09802	474.98013	-83.12463	1509.01538	543.35522	-181.43819	1336.74939	633.97687	-156.96812	1210.30029	671.43530	-123.19553	1051.63928	747.87756	-11.81677	1016.36316	123.14835	-115.41628	1499.57813	68.05041	-202.41437	1293.16699	-19.62612	-173.15373	1206.50879	-79.80276	-138.75838	1063.79907	-173.84277	-28.71717	1007.77600	290.41492	-240.60573	1015.86847	339.89252	-238.46928	1020.95325	422.08359	-19.89616	1025.71838	362.89294	19.05678	711.49866	422.23346	-34.32010	515.45538	375.14877	-13.05217	440.61035	373.83493	-105.32290	107.81038	328.75809	-166.49048	75.60789	410.01755	36.09917	61.54964	302.18457	43.63325	55.80420	173.57169	-37.36415	999.10614	184.59758	55.62488	683.33539	124.05188	7.07433	513.65491	167.58781	-8.71156	429.10480	173.44958	-312.87051	246.25966	231.02240	-365.67996	270.11911	138.53658	-260.41367	97.64177	247.80048	-252.31619	88.07927	
1758	8.785	372.20914	-224.58040	1399.63525	474.95792	-83.45295	1509.38733	544.01630	-181.33975	1337.17175	634.16101	-156.68558	1210.66235	671.62103	-123.04533	1051.93982	747.95862	-11.71177	1016.47028	123.06611	-115.94430	1499.86914	67.72840	-202.50911	1293.40637	-19.79251	-172.83121	1206.82104	-79.90283	-138.65529	1064.07361	-173.88390	-28.61355	1007.79858	290.29895	-241.39221	1016.05664	339.83081	-239.25748	1021.40222	422.55991	-20.77489	1025.84302	363.52588	16.32042	710.88666	422.36240	-39.36212	515.24561	375.37936	-18.05230	440.57590	373.45740	-111.77385	107.83251	328.69632	-173.32706	75.94745	410.00302	29.39896	61.37469	302.18042	36.96464	55.63748	174.21532	-37.74060	999.97583	185.63611	59.48450	686.53888	124.65122	11.72230	515.58929	167.32321	-3.22009	431.98801	173.85350	-303.48413	242.58386	230.72792	-357.56055	264.75290	137.83247	-247.38072	95.80956	246.93849	-238.98468	85.93890	
1759	8.790	372.19528	-225.16338	1400.15833	474.95551	-83.91445	1509.72119	544.58307	-181.52284	1337.68359	634.41565	-156.32060	1210.94617	671.83032	-122.98379	1052.22632	747.95752	-11.54923	1016.57648	122.99413	-116.38567	1500.15063	67.36491	-202.59776	1293.52478	-19.90836	-172.57013	1206.97375	-79.98512	-138.53314	1064.24622	-173.96593	-28.50288	1007.80475	290.31125	-242.06004	1016.39478	339.64383	-240.19093	1021.60565	423.42004	-22.12580	1025.98901	364.24332	13.56606	710.44110	422.62970	-44.09180	515.03326	375.31732	-23.29016	440.52966	373.33093	-118.40086	108.06563	328.48755	-179.96265	76.13389	409.89792	22.82588	61.30266	302.19806	30.38896	55.38279	174.69679	-38.12355	1000.47595	185.61530	61.77157	688.90204	125.26584	16.31881	517.42389	167.94186	2.56934	433.69415	173.66251	-294.57108	238.98763	230.66431	-349.17673	259.15454	136.90166	-233.79672	94.04600	246.15807	-225.65158	83.65578	
1760	8.795	372.41110	-225.73051	1400.61255	474.93274	-84.24468	1510.01318	545.24188	-181.79105	1338.12488	634.64337	-155.98975	1211.22913	671.98529	-122.86089	1052.52844	747.98639	-11.46984	1016.61542	122.88233	-116.82492	1500.38525	67.25539	-202.58238	1293.60034	-20.08483	-172.27037	1207.20923	-80.07944	-138.29886	1064.42651	-174.00261	-28.43828	1007.86566	290.32214	-242.38586	1016.42108	339.68991	-240.80867	1021.83923	424.09369	-23.33663	1026.13440	364.80649	11.38833	710.03192	422.68851	-49.32518	514.92670	375.25366	-28.67686	440.10623	373.20938	-125.13642	108.24316	328.55548	-186.54050	76.32265	409.97037	16.26498	61.18344	302.10849	23.68404	55.17884	175.38397	-38.56401	1000.94507	185.78407	64.63269	690.86774	126.04149	20.83924	519.27942	168.38120	8.43195	435.48572	173.96974	-286.05466	235.34103	230.54735	-340.37949	253.31284	136.14297	-220.40831	92.19712	245.25499	-212.12424	81.25922	
1761	8.800	372.35791	-226.30670	1400.86292	474.89352	-84.60035	1510.29675	545.70551	-181.81839	1338.51758	634.82635	-155.73741	1211.54138	672.13928	-122.81835	1052.79504	748.02350	-11.40330	1016.65533	122.87147	-117.32088	1500.55615	67.17419	-202.55376	1293.63025	-20.23788	-172.00192	1207.35559	-80.17760	-138.11200	1064.57715	-174.02661	-28.33160	1007.88196	290.11081	-243.24611	1016.63477	339.57739	-241.70152	1022.12714	424.76520	-24.41917	1026.14587	365.14474	8.35263	709.49451	422.83578	-53.98182	514.67206	375.01718	-34.06941	439.89828	372.92825	-131.38382	108.38972	328.29871	-192.95560	76.57627	409.80991	9.64598	61.04832	302.03714	17.16343	54.99994	176.03841	-38.85822	1001.42480	185.83136	66.64713	692.95868	126.58772	24.88260	521.28265	168.93011	13.91815	437.15506	173.96307	-276.36319	231.14908	230.51883	-331.45593	247.38766	135.48499	-206.93033	90.17403	244.44447	-198.60802	78.90112	
